<mxfile host="Electron" agent="Mozilla/5.0 (Macintosh; Intel Mac OS X 10_15_7) AppleWebKit/537.36 (KHTML, like Gecko) draw.io/28.0.6 Chrome/138.0.7204.100 Electron/37.2.3 Safari/537.36" version="28.0.6">
  <diagram name="第 1 页" id="Kmz15pmWdGuLyXgs88_O">
    <mxGraphModel dx="182" dy="863" grid="1" gridSize="10" guides="1" tooltips="1" connect="1" arrows="1" fold="1" page="1" pageScale="1" pageWidth="827" pageHeight="1169" math="1" shadow="0">
      <root>
        <mxCell id="0" />
        <mxCell id="1" parent="0" />
        <mxCell id="0yLNClQPDT7pCWQUZeub-1" value="Causal Full Attention" style="rounded=1;whiteSpace=wrap;html=1;fillColor=#dae8fc;strokeColor=default;" parent="1" vertex="1">
          <mxGeometry x="930" y="420" width="735" height="40" as="geometry" />
        </mxCell>
        <mxCell id="0yLNClQPDT7pCWQUZeub-2" value="Long Context" style="rounded=1;whiteSpace=wrap;html=1;fillColor=#d5e8d4;strokeColor=#82b366;" parent="1" vertex="1">
          <mxGeometry x="930" y="480" width="670" height="40" as="geometry" />
        </mxCell>
        <mxCell id="0yLNClQPDT7pCWQUZeub-3" value="Answer" style="rounded=1;whiteSpace=wrap;html=1;fillColor=#fff2cc;strokeColor=#d6b656;" parent="1" vertex="1">
          <mxGeometry x="1614" y="480" width="52" height="40" as="geometry" />
        </mxCell>
        <mxCell id="qpElKXFzFuV2VmCMAAWK-11" value="Prefill Tokens" style="rounded=1;whiteSpace=wrap;html=1;fillColor=#d5e8d4;strokeColor=#82b366;verticalAlign=middle;" parent="1" vertex="1">
          <mxGeometry x="1360" y="886" width="90" height="30" as="geometry" />
        </mxCell>
        <mxCell id="qpElKXFzFuV2VmCMAAWK-12" value="Decoding Tokens" style="rounded=1;whiteSpace=wrap;html=1;fillColor=#fff2cc;strokeColor=#d6b656;" parent="1" vertex="1">
          <mxGeometry x="1461.5" y="886" width="118.5" height="30" as="geometry" />
        </mxCell>
        <mxCell id="qpElKXFzFuV2VmCMAAWK-13" value="LLM" style="rounded=1;whiteSpace=wrap;html=1;fillColor=#dae8fc;strokeColor=default;" parent="1" vertex="1">
          <mxGeometry x="1591" y="886" width="80" height="30" as="geometry" />
        </mxCell>
        <mxCell id="qpElKXFzFuV2VmCMAAWK-14" value="\(\text{Chunk}_1\)" style="rounded=1;whiteSpace=wrap;html=1;fillColor=#d5e8d4;strokeColor=#82b366;verticalAlign=middle;" parent="1" vertex="1">
          <mxGeometry x="930" y="635" width="120" height="40" as="geometry" />
        </mxCell>
        <mxCell id="qpElKXFzFuV2VmCMAAWK-15" value="\(\text{Info}_1\)" style="rounded=1;whiteSpace=wrap;html=1;fillColor=#fff2cc;strokeColor=#d6b656;" parent="1" vertex="1">
          <mxGeometry x="1060" y="635" width="54" height="40" as="geometry" />
        </mxCell>
        <mxCell id="qpElKXFzFuV2VmCMAAWK-26" value="\(\text{Info}_1\)" style="rounded=1;whiteSpace=wrap;html=1;fillColor=#d5e8d4;strokeColor=#82b366;" parent="1" vertex="1">
          <mxGeometry x="1130" y="635" width="54" height="40" as="geometry" />
        </mxCell>
        <mxCell id="qpElKXFzFuV2VmCMAAWK-27" value="\(\text{Chunk}_2\)" style="rounded=1;whiteSpace=wrap;html=1;fillColor=#d5e8d4;strokeColor=#82b366;verticalAlign=middle;" parent="1" vertex="1">
          <mxGeometry x="1193" y="635" width="120" height="40" as="geometry" />
        </mxCell>
        <mxCell id="qpElKXFzFuV2VmCMAAWK-28" value="\(\text{Info}_2\)" style="rounded=1;whiteSpace=wrap;html=1;fillColor=#fff2cc;strokeColor=#d6b656;" parent="1" vertex="1">
          <mxGeometry x="1323" y="635" width="54" height="40" as="geometry" />
        </mxCell>
        <mxCell id="qpElKXFzFuV2VmCMAAWK-33" value="\(\text{Chunk}_n\)" style="rounded=1;whiteSpace=wrap;html=1;fillColor=#d5e8d4;strokeColor=#82b366;verticalAlign=middle;" parent="1" vertex="1">
          <mxGeometry x="1480" y="635" width="120" height="40" as="geometry" />
        </mxCell>
        <mxCell id="qpElKXFzFuV2VmCMAAWK-34" value="\(\text{Info}_n\)" style="rounded=1;whiteSpace=wrap;html=1;fillColor=#fff2cc;strokeColor=#d6b656;" parent="1" vertex="1">
          <mxGeometry x="1609" y="635" width="54" height="40" as="geometry" />
        </mxCell>
        <mxCell id="qpElKXFzFuV2VmCMAAWK-36" value="\(\text{Info}_{n-1}\)" style="rounded=1;whiteSpace=wrap;html=1;fillColor=#d5e8d4;strokeColor=#82b366;" parent="1" vertex="1">
          <mxGeometry x="1420" y="635" width="54" height="40" as="geometry" />
        </mxCell>
        <mxCell id="qpElKXFzFuV2VmCMAAWK-37" value="&lt;b&gt;&lt;font style=&quot;font-size: 19px;&quot;&gt;...&lt;/font&gt;&lt;/b&gt;" style="text;html=1;align=center;verticalAlign=middle;resizable=0;points=[];autosize=1;strokeColor=none;fillColor=none;" parent="1" vertex="1">
          <mxGeometry x="1380" y="631" width="40" height="40" as="geometry" />
        </mxCell>
        <mxCell id="qpElKXFzFuV2VmCMAAWK-38" value="Causal Full Attention" style="rounded=1;whiteSpace=wrap;html=1;fillColor=#dae8fc;strokeColor=default;" parent="1" vertex="1">
          <mxGeometry x="930" y="585" width="183" height="40" as="geometry" />
        </mxCell>
        <mxCell id="qpElKXFzFuV2VmCMAAWK-39" value="Causal Full Attention" style="rounded=1;whiteSpace=wrap;html=1;fillColor=#dae8fc;strokeColor=default;" parent="1" vertex="1">
          <mxGeometry x="1130" y="585" width="246" height="40" as="geometry" />
        </mxCell>
        <mxCell id="qpElKXFzFuV2VmCMAAWK-41" value="Causal Full Attention" style="rounded=1;whiteSpace=wrap;html=1;fillColor=#dae8fc;strokeColor=default;" parent="1" vertex="1">
          <mxGeometry x="1420" y="585" width="246" height="40" as="geometry" />
        </mxCell>
        <mxCell id="qpElKXFzFuV2VmCMAAWK-45" value="\(\text{Chunk}_1\)" style="rounded=1;whiteSpace=wrap;html=1;fillColor=#d5e8d4;strokeColor=#82b366;verticalAlign=middle;" parent="1" vertex="1">
          <mxGeometry x="927" y="795" width="120" height="40" as="geometry" />
        </mxCell>
        <mxCell id="qpElKXFzFuV2VmCMAAWK-46" value="\(\text{Info}_1\)" style="rounded=1;whiteSpace=wrap;html=1;fillColor=#fff2cc;strokeColor=#d6b656;" parent="1" vertex="1">
          <mxGeometry x="1057" y="795" width="54" height="40" as="geometry" />
        </mxCell>
        <mxCell id="qpElKXFzFuV2VmCMAAWK-47" value="\(\text{Chunk}_2\)" style="rounded=1;whiteSpace=wrap;html=1;fillColor=#d5e8d4;strokeColor=#82b366;verticalAlign=middle;" parent="1" vertex="1">
          <mxGeometry x="1120" y="795" width="120" height="40" as="geometry" />
        </mxCell>
        <mxCell id="qpElKXFzFuV2VmCMAAWK-48" value="\(\text{Info}_2\)" style="rounded=1;whiteSpace=wrap;html=1;fillColor=#fff2cc;strokeColor=#d6b656;" parent="1" vertex="1">
          <mxGeometry x="1250" y="795" width="54" height="40" as="geometry" />
        </mxCell>
        <mxCell id="qpElKXFzFuV2VmCMAAWK-49" value="\(\text{Chunk}_n\)" style="rounded=1;whiteSpace=wrap;html=1;fillColor=#d5e8d4;strokeColor=#82b366;verticalAlign=middle;" parent="1" vertex="1">
          <mxGeometry x="1480" y="795" width="120" height="40" as="geometry" />
        </mxCell>
        <mxCell id="qpElKXFzFuV2VmCMAAWK-50" value="\(\text{Info}_n\)" style="rounded=1;whiteSpace=wrap;html=1;fillColor=#fff2cc;strokeColor=#d6b656;" parent="1" vertex="1">
          <mxGeometry x="1609" y="795" width="54" height="40" as="geometry" />
        </mxCell>
        <mxCell id="qpElKXFzFuV2VmCMAAWK-51" value="&lt;b&gt;&lt;font style=&quot;font-size: 19px;&quot;&gt;...&lt;/font&gt;&lt;/b&gt;" style="text;html=1;align=center;verticalAlign=middle;resizable=0;points=[];autosize=1;strokeColor=none;fillColor=none;" parent="1" vertex="1">
          <mxGeometry x="1438" y="790" width="40" height="40" as="geometry" />
        </mxCell>
        <mxCell id="qpElKXFzFuV2VmCMAAWK-52" value="Causal&amp;nbsp;Sliding Window Attention" style="rounded=1;whiteSpace=wrap;html=1;fillColor=#dae8fc;strokeColor=default;" parent="1" vertex="1">
          <mxGeometry x="1143" y="736" width="300" height="40" as="geometry" />
        </mxCell>
        <mxCell id="qpElKXFzFuV2VmCMAAWK-53" value="" style="endArrow=classic;html=1;rounded=0;" parent="1" edge="1">
          <mxGeometry width="50" height="50" relative="1" as="geometry">
            <mxPoint x="1457" y="756" as="sourcePoint" />
            <mxPoint x="1657" y="756" as="targetPoint" />
          </mxGeometry>
        </mxCell>
        <mxCell id="qpElKXFzFuV2VmCMAAWK-54" value="" style="endArrow=classic;html=1;rounded=0;" parent="1" edge="1">
          <mxGeometry width="50" height="50" relative="1" as="geometry">
            <mxPoint x="927" y="755.71" as="sourcePoint" />
            <mxPoint x="1127" y="756" as="targetPoint" />
          </mxGeometry>
        </mxCell>
        <mxCell id="qpElKXFzFuV2VmCMAAWK-55" value="\(\text{Chunk}_3\)" style="rounded=1;whiteSpace=wrap;html=1;fillColor=#d5e8d4;strokeColor=#82b366;verticalAlign=middle;" parent="1" vertex="1">
          <mxGeometry x="1310" y="795" width="120" height="40" as="geometry" />
        </mxCell>
        <mxCell id="qpElKXFzFuV2VmCMAAWK-56" value="(1) Long-Context Full Attention&amp;nbsp;LLM&amp;nbsp;" style="text;html=1;align=center;verticalAlign=middle;resizable=0;points=[];autosize=1;strokeColor=none;fillColor=none;" parent="1" vertex="1">
          <mxGeometry x="1187.5" y="520" width="220" height="30" as="geometry" />
        </mxCell>
        <mxCell id="qpElKXFzFuV2VmCMAAWK-57" value="(2) Context Compression" style="text;html=1;align=center;verticalAlign=middle;resizable=0;points=[];autosize=1;strokeColor=none;fillColor=none;" parent="1" vertex="1">
          <mxGeometry x="1197" y="675" width="160" height="30" as="geometry" />
        </mxCell>
        <mxCell id="qpElKXFzFuV2VmCMAAWK-58" value="(3) Active Sliding Window LLM" style="text;html=1;align=center;verticalAlign=middle;resizable=0;points=[];autosize=1;strokeColor=none;fillColor=none;" parent="1" vertex="1">
          <mxGeometry x="1187" y="835" width="190" height="30" as="geometry" />
        </mxCell>
      </root>
    </mxGraphModel>
  </diagram>
</mxfile>
